<?xml version="1.0" encoding="utf-8"?>
<svg viewBox="1.691 152.193 681.902 683.18" xmlns="http://www.w3.org/2000/svg">
  <defs>
    <style>.cls-1{fill:none;stroke:#1d1d1b;stroke-linecap:round;stroke-linejoin:round;stroke-width:10px;}</style>
  </defs>
  <g id="Layer_2" data-name="Layer 2" style="" transform="matrix(1.635159, 0, 0, 1.635159, -147.121429, -144.44371)">
    <circle class="cls-1" cx="299.52" cy="391.15" r="201.01"/>
    <polyline class="cls-1" points="343.1 315.32 386.69 340.47 299.5 390.82 212.32 340.47 255.91 315.32"/>
    <polygon class="cls-1" points="299.52 239.82 212.34 290.16 299.52 340.49 386.7 290.16 299.52 239.82"/>
    <polyline class="cls-1" points="255.52 465.97 299.5 491.51 299.5 390.82 212.32 340.47 211.89 392"/>
    <polygon class="cls-1" points="167.49 466.72 168.33 366.82 255.51 417.16 255.51 517.83 167.49 466.72"/>
    <polygon class="cls-1" points="386.69 340.47 386.69 392 343.1 417.15 343.1 466.36 299.51 491.51 299.51 390.82 386.69 340.47"/>
    <polyline class="cls-1" points="386.69 392 430.28 366.85 430.28 467.5 343.1 517.84 343.1 466.36"/>
  </g>
</svg>